<svg width="18" height="20" viewBox="0 0 18 20" fill="none" xmlns="http://www.w3.org/2000/svg">
<path d="M8.99984 0.399994C7.09028 0.399994 5.25893 1.15856 3.90867 2.50882C2.55841 3.85909 1.79984 5.69043 1.79984 7.59999V11.9032L0.951442 12.7516C0.783671 12.9194 0.669423 13.1332 0.623142 13.366C0.576861 13.5987 0.600624 13.8399 0.691428 14.0592C0.782232 14.2784 0.936 14.4658 1.13329 14.5977C1.33058 14.7295 1.56254 14.7999 1.79984 14.8H16.1998C16.4371 14.7999 16.6691 14.7295 16.8664 14.5977C17.0637 14.4658 17.2175 14.2784 17.3083 14.0592C17.3991 13.8399 17.4228 13.5987 17.3765 13.366C17.3303 13.1332 17.216 12.9194 17.0482 12.7516L16.1998 11.9032V7.59999C16.1998 5.69043 15.4413 3.85909 14.091 2.50882C12.7407 1.15856 10.9094 0.399994 8.99984 0.399994ZM8.99984 19.6C8.04506 19.6 7.12939 19.2207 6.45426 18.5456C5.77913 17.8704 5.39984 16.9548 5.39984 16H12.5998C12.5998 16.9548 12.2206 17.8704 11.5454 18.5456C10.8703 19.2207 9.95462 19.6 8.99984 19.6Z" fill="#6B7280"/>
</svg>
