<svg width="20" height="20" viewBox="0 0 20 20" fill="none" xmlns="http://www.w3.org/2000/svg">
<path fill-rule="evenodd" clip-rule="evenodd" d="M9.9999 19.6C12.546 19.6 14.9878 18.5886 16.7881 16.7882C18.5885 14.9879 19.5999 12.5461 19.5999 10C19.5999 7.45395 18.5885 5.01215 16.7881 3.2118C14.9878 1.41145 12.546 0.400024 9.9999 0.400024C7.45382 0.400024 5.01203 1.41145 3.21168 3.2118C1.41133 5.01215 0.399902 7.45395 0.399902 10C0.399902 12.5461 1.41133 14.9879 3.21168 16.7882C5.01203 18.5886 7.45382 19.6 9.9999 19.6ZM11.1999 5.20002C11.1999 4.88176 11.0735 4.57654 10.8484 4.3515C10.6234 4.12645 10.3182 4.00002 9.9999 4.00002C9.68164 4.00002 9.37642 4.12645 9.15137 4.3515C8.92633 4.57654 8.7999 4.88176 8.7999 5.20002V10C8.79997 10.3183 8.92644 10.6234 9.1515 10.8484L12.5451 14.2432C12.6566 14.3547 12.789 14.4432 12.9346 14.5035C13.0803 14.5638 13.2364 14.5949 13.3941 14.5949C13.5518 14.5949 13.7079 14.5638 13.8536 14.5035C13.9993 14.4432 14.1316 14.3547 14.2431 14.2432C14.3546 14.1317 14.443 13.9994 14.5034 13.8537C14.5637 13.708 14.5948 13.5519 14.5948 13.3942C14.5948 13.2366 14.5637 13.0804 14.5034 12.9347C14.443 12.7891 14.3546 12.6567 14.2431 12.5452L11.1999 9.50323V5.20002Z" fill="#6B7280"/>
</svg>
